<svg width="20" height="20" viewBox="0 0 20 20" fill="none" xmlns="http://www.w3.org/2000/svg">
<path fill-rule="evenodd" clip-rule="evenodd" d="M0.5 6.15578C0.5 3.03218 3.03218 0.5 6.15578 0.5H13.8442C16.9678 0.5 19.5 3.03218 19.5 6.15578V13.8442C19.5 16.9678 16.9678 19.5 13.8442 19.5H6.15578C3.03218 19.5 0.5 16.9678 0.5 13.8442V6.15578ZM6.15578 1.5C3.58446 1.5 1.5 3.58446 1.5 6.15578V13.8442C1.5 16.4155 3.58446 18.5 6.15578 18.5H13.8442C16.4155 18.5 18.5 16.4155 18.5 13.8442V6.15578C18.5 3.58446 16.4155 1.5 13.8442 1.5H6.15578Z" fill="white"/>
<path d="M8.80294 12.4675C8.73212 12.4675 8.6642 12.4957 8.61412 12.5457C8.56404 12.5958 8.5359 12.6637 8.5359 12.7346V15.7325C8.5359 15.9389 8.76028 16.0669 8.93766 15.9631L10.1383 15.2619L11.3389 15.9631C11.5147 16.0662 11.7407 15.9401 11.7407 15.7326V12.7346C11.7407 12.6638 11.7126 12.5959 11.6625 12.5458C11.6124 12.4957 11.5445 12.4676 11.4737 12.4676C11.4028 12.4676 11.3349 12.4957 11.2848 12.5458C11.2348 12.5959 11.2066 12.6638 11.2066 12.7346V15.2674L10.2731 14.7221C10.2322 14.6982 10.1857 14.6855 10.1384 14.6855C10.091 14.6855 10.0445 14.6982 10.0037 14.7221L9.07014 15.2674V12.7346C9.07008 12.6638 9.04191 12.5959 8.99181 12.5458C8.94171 12.4957 8.87378 12.4676 8.80294 12.4675Z" fill="white"/>
<path d="M6.44743 10.2901C6.2888 10.9935 6.77997 11.6858 7.51559 11.7551C7.75959 11.778 7.97138 11.932 8.07021 12.1612C8.35728 12.8261 9.16417 13.0926 9.79479 12.7181C10.0058 12.5924 10.2682 12.5925 10.4828 12.7199C11.1006 13.0868 11.9128 12.8363 12.2061 12.1571C12.3031 11.932 12.5149 11.778 12.7648 11.7545C13.4835 11.6869 13.9878 11.0029 13.8265 10.2881L13.8259 10.2853C13.7724 10.0464 13.8532 9.79744 14.0413 9.63158C14.5812 9.15591 14.5906 8.30723 14.0366 7.82009C13.8527 7.65841 13.7716 7.40931 13.8265 7.16368C13.9844 6.45701 13.4881 5.76838 12.758 5.70089C12.6378 5.68981 12.5229 5.64649 12.4253 5.57552C12.3278 5.50455 12.2512 5.40855 12.2036 5.29766C11.9176 4.63217 11.1092 4.36431 10.4796 4.7386C10.3757 4.8002 10.2571 4.83261 10.1362 4.83243C10.0154 4.83225 9.89687 4.79949 9.79311 4.73758C9.1688 4.36676 8.35836 4.6285 8.07087 5.29781C7.97388 5.52366 7.76143 5.67821 7.51258 5.7013C6.79679 5.76741 6.28763 6.4459 6.44936 7.17031C6.50283 7.40931 6.42169 7.65841 6.23431 7.82325C5.69096 8.30086 5.6856 9.14923 6.23758 9.6355C6.42163 9.79769 6.50237 10.0469 6.44743 10.2901ZM6.5905 8.22124C6.92111 7.9306 7.06678 7.48327 6.96933 7.04711C6.88089 6.65218 7.15879 6.2704 7.56585 6.23273C7.78164 6.21286 7.98807 6.13511 8.16335 6.00768C8.33863 5.88025 8.47627 5.70787 8.56173 5.50873C8.72107 5.13766 9.17074 4.98928 9.52204 5.19796C9.70853 5.30862 9.92142 5.36694 10.1383 5.36676C10.3551 5.36658 10.5679 5.30791 10.7542 5.19694C11.1008 4.99111 11.5524 5.13531 11.7129 5.50863C11.8872 5.91457 12.2689 6.19206 12.7127 6.23314C13.1077 6.26964 13.3956 6.64346 13.3038 7.05378C13.2078 7.48332 13.3535 7.93065 13.6876 8.22445C13.9857 8.48655 13.9979 8.95819 13.6836 9.23496C13.5214 9.37791 13.4007 9.56186 13.3341 9.76751C13.2676 9.97316 13.2575 10.1929 13.3052 10.4038C13.3117 10.4311 13.3127 10.4349 13.306 10.4076C13.3937 10.7965 13.1249 11.1841 12.7089 11.2234C12.2706 11.2646 11.8899 11.5415 11.7138 11.9499C11.5547 12.3189 11.1067 12.4692 10.7525 12.259C10.3731 12.0334 9.90152 12.0337 9.51893 12.2608C9.1739 12.4665 8.72245 12.3248 8.55898 11.9458C8.38466 11.5415 8.004 11.2647 7.55983 11.223C7.16047 11.1852 6.87865 10.8064 6.96948 10.4039C7.06638 9.97421 6.92136 9.52642 6.58637 9.23114C6.28376 8.9641 6.28207 8.49246 6.5905 8.22124Z" fill="white"/>
<path d="M10.1369 10.5895C11.1626 10.5895 11.9972 9.75502 11.9972 8.72921C11.9972 7.70341 11.1626 6.8689 10.1369 6.8689C9.11114 6.8689 8.27663 7.70346 8.27663 8.72926C8.27663 9.75507 9.11114 10.5895 10.1369 10.5895ZM10.1369 7.40303C10.8681 7.40303 11.463 7.99797 11.463 8.72926C11.463 9.46045 10.868 10.0553 10.1369 10.0553C9.40575 10.0553 8.81081 9.4604 8.81081 8.72926C8.81081 7.99797 9.4057 7.40303 10.1369 7.40303Z" fill="white"/>
</svg>
