<svg width="24" height="24" viewBox="0 0 24 24" fill="none" xmlns="http://www.w3.org/2000/svg">
<path fill-rule="evenodd" clip-rule="evenodd" d="M6.5 16.5C6.5 14.8431 7.84315 13.5 9.5 13.5H14.5C16.1569 13.5 17.5 14.8431 17.5 16.5C17.5 16.7761 17.2761 17 17 17C16.7239 17 16.5 16.7761 16.5 16.5C16.5 15.3954 15.6046 14.5 14.5 14.5H9.5C8.39543 14.5 7.5 15.3954 7.5 16.5C7.5 16.7761 7.27614 17 7 17C6.72386 17 6.5 16.7761 6.5 16.5Z" fill="white"/>
<path fill-rule="evenodd" clip-rule="evenodd" d="M12 7C10.8954 7 10 7.89543 10 9C10 10.1046 10.8954 11 12 11C13.1046 11 14 10.1046 14 9C14 7.89543 13.1046 7 12 7ZM9 9C9 7.34315 10.3431 6 12 6C13.6569 6 15 7.34315 15 9C15 10.6569 13.6569 12 12 12C10.3431 12 9 10.6569 9 9Z" fill="white"/>
<path fill-rule="evenodd" clip-rule="evenodd" d="M2.49414 7.99634C2.49414 4.95877 4.95657 2.49634 7.99414 2.49634H16.0016C19.0392 2.49634 21.5016 4.95877 21.5016 7.99634V16.0038C21.5016 19.0414 19.0392 21.5038 16.0016 21.5038H7.99414C4.95657 21.5038 2.49414 19.0414 2.49414 16.0038V7.99634ZM7.99414 3.49634C5.50886 3.49634 3.49414 5.51105 3.49414 7.99634V16.0038C3.49414 18.4891 5.50886 20.5038 7.99414 20.5038H16.0016C18.4869 20.5038 20.5016 18.4891 20.5016 16.0038V7.99634C20.5016 5.51106 18.4869 3.49634 16.0016 3.49634H7.99414Z" fill="white"/>
</svg>
