<svg width="50" height="50" viewBox="0 0 50 50" fill="none" xmlns="http://www.w3.org/2000/svg">
<rect x="1" y="1" width="48" height="48" rx="13.3278" stroke="#333333" stroke-width="1.7" stroke-linecap="round" stroke-linejoin="round"/>
<path d="M34.5163 29.9453H32.6916C32.1954 29.9449 31.705 30.0514 31.2537 30.2575L23.957 33.5807" stroke="#333333" stroke-width="1.7" stroke-linecap="round" stroke-linejoin="round"/>
<path d="M42.2778 18.7734H37.4802C35.8904 18.7734 34.6016 20.0622 34.6016 21.652V29.3283C34.6016 30.9181 35.8904 32.2069 37.4802 32.2069H42.2778" stroke="#333333" stroke-width="1.7" stroke-linecap="round" stroke-linejoin="round"/>
<path d="M7.73633 32.2069H12.534C14.1238 32.2069 15.4126 30.9181 15.4126 29.3283V21.652C15.4126 20.0622 14.1238 18.7734 12.534 18.7734H7.73633" stroke="#333333" stroke-width="1.7" stroke-linecap="round" stroke-linejoin="round"/>
<path d="M35.3813 19.5938L29.4378 16.9775C28.3687 16.507 27.1347 16.6061 26.1545 17.2411L21.6277 20.174C20.9474 20.6149 20.5104 21.3467 20.4449 22.1547C20.3793 22.9627 20.6926 23.7554 21.2929 24.3002V24.3002C22.0722 25.0058 23.1984 25.1759 24.1513 24.732L26.85 23.4711L28.747 25.1929C29.3014 25.6961 29.6333 26.3989 29.6695 27.1467C29.7057 27.8946 29.4433 28.6261 28.9401 29.1805C28.8815 29.2451 28.82 29.3068 28.7556 29.3658L24.7356 33.0451C23.4144 34.2544 21.3898 34.2589 20.0631 33.0557L17.6466 30.8639C17.0517 30.3358 16.3038 30.0113 15.5117 29.9377" stroke="#333333" stroke-width="1.7" stroke-linecap="round" stroke-linejoin="round"/>
<path d="M15.4492 20.7942L19.6396 19.2839C20.6034 18.946 21.6673 19.0527 22.5448 19.5753" stroke="#333333" stroke-width="1.7" stroke-linecap="round" stroke-linejoin="round"/>
</svg>
