<svg width="64" height="64" viewBox="0 0 64 64" fill="none" xmlns="http://www.w3.org/2000/svg">
<path d="M26.6689 41.3339H37.3408" stroke="#333333" stroke-width="1.7" stroke-linecap="round" stroke-linejoin="round"/>
<path d="M41.3368 37.333V26.6611" stroke="#333333" stroke-width="1.7" stroke-linecap="round" stroke-linejoin="round"/>
<path fill-rule="evenodd" clip-rule="evenodd" d="M37.3359 23.9918V21.324C37.3359 19.8507 38.5303 18.6562 40.0037 18.6562H42.6715C44.1449 18.6562 45.3393 19.8507 45.3393 21.324V23.9918C45.3393 25.4652 44.1449 26.6596 42.6715 26.6596H40.0037C38.5303 26.6596 37.3359 25.4652 37.3359 23.9918Z" stroke="#333333" stroke-width="1.7" stroke-linecap="round" stroke-linejoin="round"/>
<path fill-rule="evenodd" clip-rule="evenodd" d="M45.3393 40.0008V42.6686C45.3393 44.1419 44.1449 45.3363 42.6715 45.3363H40.0037C38.5303 45.3363 37.3359 44.1419 37.3359 42.6686V40.0008C37.3359 38.5274 38.5303 37.333 40.0037 37.333H42.6715C44.1449 37.333 45.3393 38.5274 45.3393 40.0008Z" stroke="#333333" stroke-width="1.7" stroke-linecap="round" stroke-linejoin="round"/>
<path d="M37.3408 22.662H26.6689" stroke="#333333" stroke-width="1.7" stroke-linecap="round" stroke-linejoin="round"/>
<path d="M22.6493 37.333V26.6611" stroke="#333333" stroke-width="1.7" stroke-linecap="round" stroke-linejoin="round"/>
<path fill-rule="evenodd" clip-rule="evenodd" d="M18.6484 23.9918V21.324C18.6484 19.8507 19.8428 18.6562 21.3162 18.6562H23.984C25.4574 18.6562 26.6518 19.8507 26.6518 21.324V23.9918C26.6518 25.4652 25.4574 26.6596 23.984 26.6596H21.3162C19.8428 26.6596 18.6484 25.4652 18.6484 23.9918Z" stroke="#333333" stroke-width="1.7" stroke-linecap="round" stroke-linejoin="round"/>
<path fill-rule="evenodd" clip-rule="evenodd" d="M26.6518 40.0008V42.6686C26.6518 44.1419 25.4574 45.3363 23.984 45.3363H21.3162C19.8428 45.3363 18.6484 44.1419 18.6484 42.6686V40.0008C18.6484 38.5274 19.8428 37.333 21.3162 37.333H23.984C25.4574 37.333 26.6518 38.5274 26.6518 40.0008Z" stroke="#333333" stroke-width="1.7" stroke-linecap="round" stroke-linejoin="round"/>
<rect x="7.98145" y="7.98926" width="48.02" height="48.02" rx="13.3333" stroke="#333333" stroke-width="1.7" stroke-linecap="round" stroke-linejoin="round"/>
</svg>
