<svg width="31" height="30" viewBox="0 0 31 30" fill="none" xmlns="http://www.w3.org/2000/svg">
<path fill-rule="evenodd" clip-rule="evenodd" d="M24.4096 2.72671C23.1037 6.07627 20.1306 6.77322 15.8239 6.77322C15.3617 6.77322 14.9038 6.76595 14.462 6.75941C14.0346 6.7536 13.6306 6.74706 13.2345 6.74706C12.8827 6.74706 12.5281 6.75142 12.1785 6.76668C12.7817 5.28558 13.7447 4.27903 15.1153 3.66857C17.0259 2.81828 19.5099 2.80956 21.7018 2.80302C22.6567 2.79938 23.571 2.79575 24.4096 2.72671Z" fill="#8BB920"/>
<path fill-rule="evenodd" clip-rule="evenodd" d="M25.7516 3.8016C23.82 8.00945 19.5147 8.43096 15.8243 8.43096C15.014 8.43096 14.2378 8.41134 13.5191 8.40698L12.5896 12.0421C17.3498 8.16134 23.6448 12.0087 22.9718 17.8648C22.5184 21.8089 19.7066 24.3881 16.732 25.1294C13.4915 25.9375 9.90136 24.7282 8.29162 21.4259C8.12083 21.077 7.82359 20.3779 7.71022 20.0044L11.1274 19.1265C11.1877 19.3234 11.2902 19.5138 11.3977 19.6875C13.6855 23.3772 18.3214 21.532 18.8447 17.7042C19.3774 13.8103 13.9137 11.7362 11.4239 16.2871L8.39336 14.9956L8.34104 14.9724L9.80252 9.10538C9.89263 8.68823 10.1964 7.52326 10.2487 7.33212C11.9006 1.25799 17.2444 1.16206 21.5307 1.14608C19.7582 0.40843 17.8149 0 15.7749 0C7.49002 0 0.774902 6.71512 0.774902 15C0.774902 23.2849 7.49002 30 15.7749 30C24.0598 30 30.7749 23.2849 30.7749 15C30.7749 10.5465 28.833 6.54869 25.7516 3.8016Z" fill="#EB2316"/>
</svg>
