<svg width="1680" height="810" viewBox="0 0 1680 810" fill="none" xmlns="http://www.w3.org/2000/svg">
<g opacity="0.02">
<path fill-rule="evenodd" clip-rule="evenodd" d="M438.668 630.518C465.71 658.326 541.321 733.248 565.835 757.609C707.711 632.05 888.196 430.958 963.423 374.575C1054.66 305.629 1164.06 317.044 1242.2 396.025C1327.08 481.825 1393.8 521.89 1397.71 632.204C1393.8 821.958 855.561 1279.38 715.907 1409.99C698.518 1427.38 683.579 1439.87 661.133 1461.62C705.182 1478.78 724.64 1490.2 862.686 1490.2C962.274 1490.2 1072.36 1444.69 1133.95 1404.4C1195.54 1364.1 1427.28 1122.18 1496.68 1052.85C1630.21 898.718 1722.52 805.488 1703.52 558.431C1695.86 464.512 1644.07 363.544 1601.17 303.638C1552.38 235.458 1250.01 -40.6327 1250.01 -65.5298C1250.01 -130.033 1288.31 -188.1 1292.37 -241.112C645.506 429.502 647.038 428.966 438.974 630.595" fill="white"/>
<path fill-rule="evenodd" clip-rule="evenodd" d="M1241.04 618.385C1214.08 590.576 1138.39 515.655 1113.95 491.294C972.076 616.852 791.514 817.945 716.286 874.327C625.048 943.273 515.653 931.859 437.591 852.878C352.711 767.078 285.91 727.013 282.08 616.699C285.91 426.944 824.149 -30.4738 963.879 -161.088C981.345 -178.478 996.207 -190.965 1018.65 -212.721C974.757 -229.804 955.299 -241.219 817.331 -241.219C717.742 -241.219 607.581 -195.714 545.99 -155.419C484.398 -115.124 252.816 126.493 183.334 196.129C49.7318 350.261 -42.5792 443.492 -23.5041 690.548C-16.3031 784.468 35.8661 885.435 78.8425 945.342C127.641 1013.52 429.931 1289.61 429.931 1314.51C429.931 1379.01 392.01 1437.08 387.567 1490.09C1034.2 819.477 1032.98 820.013 1241.04 618.385Z" fill="white"/>
</g>
</svg>
