<svg width="576" height="450" viewBox="0 0 576 450" fill="none" xmlns="http://www.w3.org/2000/svg">
<path d="M575.505 224.543C575.331 105.459 446.473 9.12953 287.691 9.37571C246.7 9.29513 205.98 16.0575 167.189 29.3872C136.111 25.5185 105.557 37.8278 105.557 37.8278C105.557 37.8278 127.86 74.0525 161.316 87.2762C184.808 96.561 211.377 88.7533 216.026 84.322C216.026 84.322 206.867 65.5766 177.397 52.4584C163.094 46.4367 148.058 42.3564 132.685 40.3249C144.501 41.3448 154.499 40.0435 178.306 47.6753C211.446 58.2262 220.256 78.2025 220.256 78.2025C222.179 59.4571 209.768 46.1982 197.393 39.1292C226.908 31.4463 257.274 27.5699 287.761 27.5935C436.58 27.3473 557.327 115.517 557.467 224.543C557.195 258.307 546.044 291.071 525.689 317.918C516.398 308.551 506.431 299.887 495.87 291.998C503.141 248.036 471.014 207.204 436.091 187.052C452.102 135.74 402.845 83.3372 313.735 81.5436C300.451 81.5436 282.273 82.1415 270.457 83.4076L275.421 51.755H268.429C243.678 51.966 234.484 67.9329 231.792 74.1931L222.214 92.6923C166.734 108.167 136.285 134.685 133.559 137.041C127.126 142.633 128.455 145.025 139.886 140.277C162.284 131.094 185.386 123.754 208.964 118.331L133.873 256.934C93.8107 252.327 52.0351 256.934 30.8852 284.366C22.825 265.72 18.6374 245.614 18.5797 225.281C18.5797 161.976 58.8869 105.705 121.812 69.5859C116.57 66.1317 110.39 64.4016 104.127 64.6347C97.8645 64.8678 91.8285 67.0527 86.8538 70.8872L86.6092 71.063C33.4721 110.418 0.401232 165.036 0.506108 225.281C0.638849 253.196 7.69205 280.636 21.0268 305.116C20.0438 310.034 20.1611 315.11 21.3704 319.977C22.5798 324.843 24.8507 329.378 28.0185 333.252C38.1216 346.265 58.3976 352.032 82.0995 343.803C114.087 332.584 138.663 297.309 146.493 284.507C123.386 280.709 114.227 289.149 110.975 293.546C101.572 306.171 87.6928 320.38 73.185 326.64C43.4702 339.477 24.243 312.572 47.7002 290.626C63.5715 275.89 95.1041 272.831 123.56 276.559H124.26C148.119 279.756 171.504 285.861 193.897 294.741C188.374 327.343 184.528 348.199 184.528 348.199H195.016C229.625 348.199 232.631 322.244 232.631 322.244L234.414 313.1C266.122 328.75 296.955 345.491 298.528 346.441C306.639 350.907 318.385 350.661 320.203 338.809L333.662 246.805C368.83 244.765 403.334 230.979 421.792 210.862C437.838 223.488 452.661 243.675 455.493 268.118C435.846 259.537 413.542 254.402 390.889 257.954C338.066 266.184 319.608 320.837 348.659 351.821C370.438 375.104 401.656 377.601 435.286 364.834C454.67 357.283 471.17 343.737 482.411 326.148C478.591 322.159 474.334 318.62 469.721 315.597C465.155 312.607 459.64 311.45 454.266 312.355C448.893 313.26 444.053 316.162 440.705 320.485C431.675 332.124 419.12 340.483 404.942 344.295C343.52 359.383 337.717 278.493 400.677 276.066C420.604 275.293 438.118 283.839 453.57 295.093C469.511 307.121 491.395 329.418 502.302 337.085C508.851 341.864 516.353 345.155 524.29 346.734C532.226 348.313 540.409 348.141 548.273 346.23C545.058 341.098 541.557 336.155 537.785 331.423C561.837 300.087 575.575 263.511 575.505 224.543ZM197.952 270.017C186.031 266.184 163.693 261.506 159.043 260.556L218.054 150.968C212.041 187.509 204.42 232.632 198.092 270.017H197.952ZM336.249 227.497L341.702 190.288C300.906 190.604 295.067 218.634 294.403 223.101C274.861 213.605 291.432 193.242 318.874 187.931C344.679 183.4 371.231 186.251 395.504 196.161C385.89 214.344 364.251 225.281 336.389 227.497H336.249ZM402.67 174.18C383.922 169.082 364.544 166.713 345.128 167.146L352.33 117.909C308.876 110.523 306.499 139.925 306.499 139.925C304.961 150.476 303.178 162.539 301.325 175.341C260.948 191.026 257.102 227.286 291.607 241.389C288.111 265.164 282.727 301.951 282.657 301.881C271.435 296.957 248.852 287.813 238.819 283.944L266.227 108.765C383.722 96.4203 406.69 150.828 402.74 174.18H402.67ZM485.347 359.207C436.405 397.893 365.649 422.266 288.286 422.512C211.377 422.512 142.158 398.949 93.0066 361.458C88.5913 357.604 83.1582 355.124 77.3678 354.318C71.5775 353.513 65.6793 354.417 60.3902 356.921C113.038 407.952 195.575 440.765 288.32 440.625C381.066 440.484 464.127 407.178 516.565 355.655C511.551 353.307 505.99 352.397 500.495 353.024C494.999 353.65 489.782 355.79 485.417 359.207H485.347Z" fill="white"/>
</svg>
