<svg width="40" height="30" viewBox="0 0 40 30" fill="none" xmlns="http://www.w3.org/2000/svg">
<path d="M39.1668 14.9695C39.1552 7.03059 30.5647 0.608635 19.9792 0.625047C17.2464 0.619675 14.5317 1.0705 11.9457 1.95915C9.87381 1.70124 7.83689 2.52186 7.83689 2.52186C7.83689 2.52186 9.3238 4.93683 11.5542 5.81841C13.1203 6.4374 14.8915 5.91689 15.2015 5.62146C15.2015 5.62146 14.5909 4.37177 12.6262 3.49723C11.6727 3.09578 10.6703 2.82376 9.64542 2.68833C10.4332 2.75632 11.0997 2.66957 12.6868 3.17836C14.8962 3.88175 15.4835 5.2135 15.4835 5.2135C15.6117 3.96381 14.7843 3.07988 13.9593 2.60861C15.927 2.09642 17.9514 1.838 19.9838 1.83957C29.9051 1.82315 37.9549 7.70116 37.9642 14.9695C37.9461 17.2205 37.2027 19.4048 35.8457 21.1945C35.2263 20.5701 34.5618 19.9925 33.8578 19.4665C34.3425 16.5357 32.2007 13.8136 29.8725 12.4701C30.9399 9.04932 27.6561 5.55582 21.7155 5.43624C20.8298 5.43624 19.6179 5.4761 18.8302 5.56051L19.1612 3.45033H18.695C17.045 3.4644 16.4321 4.52886 16.2526 4.94621L15.614 6.17949C11.9154 7.21113 9.88547 8.97898 9.70368 9.13607C9.27486 9.50887 9.36342 9.66831 10.1255 9.35178C11.6187 8.73957 13.1588 8.25028 14.7307 7.88873L9.72466 17.1289C7.05382 16.8218 4.26878 17.1289 2.85878 18.9578C2.32144 17.7147 2.04227 16.3743 2.03842 15.0188C2.03842 10.7984 4.72557 7.047 8.9206 4.63906C8.57109 4.40878 8.15909 4.29344 7.74158 4.30898C7.32407 4.32452 6.92167 4.47018 6.59003 4.72582L6.57372 4.73754C3.03125 7.36118 0.826521 11.0024 0.833513 15.0188C0.842362 16.8797 1.31258 18.7091 2.20156 20.3411C2.13602 20.6689 2.14385 21.0074 2.22447 21.3318C2.30509 21.6562 2.45649 21.9585 2.66767 22.2168C3.34121 23.0843 4.69294 23.4688 6.27307 22.9202C8.40555 22.1722 10.0439 19.8206 10.566 18.9671C9.02548 18.7139 8.41487 19.2766 8.19813 19.5697C7.57121 20.4114 6.64596 21.3587 5.67877 21.776C3.69778 22.6318 2.41597 20.8382 3.97979 19.3751C5.03787 18.3927 7.14005 18.1887 9.03713 18.4372H9.08375C10.6744 18.6504 12.2334 19.0574 13.7263 19.6494C13.358 21.8229 13.1017 23.2133 13.1017 23.2133H13.8008C16.1081 23.2133 16.3085 21.4829 16.3085 21.4829L16.4274 20.8733C18.5412 21.9167 20.5968 23.0327 20.7017 23.096C21.2424 23.3938 22.0254 23.3774 22.1466 22.5872L23.0439 16.4537C25.3884 16.3177 27.6887 15.3986 28.9193 14.0575C29.989 14.8992 30.9772 16.245 31.1659 17.8745C29.8562 17.3024 28.3693 16.9601 26.859 17.1969C23.3375 17.7456 22.107 21.3891 24.0437 23.4548C25.4957 25.0069 27.5769 25.1734 29.8189 24.3223C31.1111 23.8189 32.2111 22.9158 32.9605 21.7432C32.7058 21.4773 32.422 21.2413 32.1145 21.0398C31.8101 20.8404 31.4424 20.7633 31.0842 20.8237C30.726 20.884 30.4033 21.0775 30.1801 21.3657C29.5781 22.1416 28.7411 22.6988 27.7959 22.953C23.7011 23.9589 23.3142 18.5662 27.5116 18.4044C28.84 18.3528 30.0077 18.9226 31.0378 19.6729C32.1005 20.4747 33.5594 21.9612 34.2866 22.4724C34.7232 22.7909 35.2233 23.0104 35.7524 23.1156C36.2815 23.2209 36.827 23.2094 37.3513 23.082C37.137 22.7399 36.9036 22.4103 36.6521 22.0949C38.2556 20.0058 39.1715 17.5674 39.1668 14.9695ZM13.9966 18.0011C13.2019 17.7456 11.7126 17.4337 11.4027 17.3704L15.3367 10.0645C14.9358 12.5006 14.4278 15.5088 14.0059 18.0011H13.9966ZM23.2164 15.1665L23.5799 12.6859C20.8601 12.707 20.4709 14.5756 20.4267 14.8734C19.1239 14.2403 20.2286 12.8828 22.0581 12.5288C23.7784 12.2266 25.5485 12.4167 27.1667 13.0774C26.5258 14.2896 25.0831 15.0188 23.2257 15.1665H23.2164ZM27.6444 11.612C26.3946 11.2721 25.1027 11.1142 23.8083 11.1431L24.2884 7.86059C21.3915 7.36822 21.233 9.32833 21.233 9.32833C21.1305 10.0317 21.0116 10.8359 20.8881 11.6894C18.1963 12.7351 17.9399 15.1524 20.2402 16.0926C20.0072 17.6776 19.6482 20.1301 19.6436 20.1254C18.8955 19.7971 17.3899 19.1875 16.721 18.9296L18.5482 7.25099C26.3813 6.42802 27.9125 10.0552 27.6491 11.612H27.6444ZM33.1563 23.9471C29.8935 26.5262 25.1764 28.1511 20.0188 28.1675C14.8915 28.1675 10.277 26.5966 7.00021 24.0972C6.70586 23.8403 6.34365 23.6749 5.95763 23.6212C5.5716 23.5675 5.17839 23.6278 4.82579 23.7947C8.33564 27.1968 13.8381 29.3844 20.0211 29.375C26.2041 29.3656 31.7416 27.1452 35.2375 23.7103C34.9032 23.5538 34.5325 23.4931 34.1661 23.5349C33.7997 23.5767 33.4519 23.7193 33.1609 23.9471H33.1563Z" fill="#52B623"/>
</svg>
