<svg width="30" height="30" viewBox="0 0 30 30" fill="none" xmlns="http://www.w3.org/2000/svg">
<path fill-rule="evenodd" clip-rule="evenodd" d="M12.3607 18.2577V27.9998C12.3652 28.2104 12.2941 28.3855 12.1582 28.5287C12.0224 28.6736 11.8509 28.7429 11.6394 28.7457L5.09235 28.7502C4.87624 28.7484 4.69479 28.6736 4.54433 28.535C4.40026 28.3873 4.32458 28.2123 4.32731 27.9998L4.32275 2.00585C4.32275 1.79431 4.39114 1.61741 4.5416 1.47516C4.69023 1.33291 4.86621 1.25814 5.08141 1.25814L13.3564 1.25723C13.5698 1.25723 13.7521 1.32744 13.8999 1.46787C14.0476 1.61376 14.1187 1.78975 14.1196 1.99947V7.02829C14.1196 7.2371 14.0476 7.414 13.9017 7.55899C13.7585 7.70397 13.5725 7.77236 13.3619 7.77692L12.3953 7.77327L12.398 11.7407L13.3619 11.7425C13.8679 11.7398 14.1223 11.9896 14.1242 12.4884L14.1251 17.5145C14.1287 18.0096 13.8679 18.2613 13.3619 18.2613L12.3607 18.2577Z" fill="#0F4188"/>
<path fill-rule="evenodd" clip-rule="evenodd" d="M15.8934 18.2579C15.6792 18.2579 15.4986 18.1859 15.3518 18.0445C15.2013 17.8995 15.1293 17.7227 15.1293 17.5148V12.4868C15.1266 12.2771 15.2013 12.102 15.3509 11.958C15.494 11.813 15.6755 11.7391 15.8898 11.7428L24.2031 11.7373C24.7119 11.74 24.9672 11.9899 24.9663 12.4786L24.9635 17.512C24.969 18.0099 24.7146 18.2552 24.2058 18.2543L15.8934 18.2579Z" fill="#0F4188"/>
<path fill-rule="evenodd" clip-rule="evenodd" d="M25.966 2.11808L25.9624 2.05516V2.00136C25.9633 1.78981 25.8885 1.61109 25.7435 1.46702C25.5922 1.32477 25.4144 1.25 25.2019 1.25091L23.939 1.25182L23.9189 1.25L22.6478 1.25274L15.8446 1.25547C15.6294 1.25182 15.4616 1.32477 15.3221 1.47067C15.2272 1.57462 15.1661 1.69863 15.1379 1.83996L15.1242 1.99771L15.126 3.54876L15.1242 6.90982L15.1288 6.97182V7.02562C15.1288 7.23808 15.2008 7.41407 15.3485 7.55996C15.4981 7.70312 15.674 7.77698 15.8892 7.77607L17.1503 7.77516L17.1722 7.77607L25.2457 7.77242C25.4627 7.77516 25.6341 7.70221 25.7672 7.55631C25.8657 7.45328 25.9259 7.32835 25.9496 7.18793L25.966 7.02927V2.11808Z" fill="#0F4188"/>
</svg>
