<svg width="30" height="30" viewBox="0 0 30 30" fill="none" xmlns="http://www.w3.org/2000/svg">
<path d="M24.0044 9.80469C22.1908 9.80469 20.9719 10.5479 19.976 11.529L16.3936 15.2155L19.976 18.902C20.9719 19.8831 22.1908 20.6263 24.0044 20.6263C26.9922 20.6263 29.2814 18.2033 29.2814 15.2155C29.2814 12.2277 27.0071 9.80469 24.0044 9.80469ZM24.0044 12.1236C25.6544 12.1236 26.9625 13.4912 26.9625 15.2155C26.9625 16.9547 25.6692 18.3074 24.0044 18.3074C23.053 18.3074 22.3692 18.0101 21.6111 17.252L19.5449 15.2006L21.5963 13.1641C22.3692 12.4209 23.053 12.1236 24.0044 12.1236Z" fill="#005A27"/>
<path d="M6.21745 9.80469C3.21475 9.80469 0.94043 12.2277 0.94043 15.2155C0.94043 18.2033 3.21475 20.6263 6.20259 20.6263C8.0161 20.6263 9.23502 19.8831 10.231 18.902L13.8134 15.2155L10.2458 11.529C9.24988 10.5479 8.0161 9.80469 6.21745 9.80469ZM6.21745 12.1236C7.1688 12.1236 7.85259 12.4209 8.62556 13.179L10.6918 15.2304L8.62556 17.252C7.85259 18.025 7.1688 18.3074 6.21745 18.3074C4.56745 18.3074 3.25935 16.9547 3.25935 15.2155C3.25935 13.4763 4.55259 12.1236 6.21745 12.1236Z" fill="#005A27"/>
<path d="M15.109 16.4951C14.7969 16.4951 11.4226 20.0775 11.4226 20.0775C10.4415 21.0735 9.69824 22.2924 9.69824 24.1059C9.69824 27.0938 12.1212 29.3681 15.109 29.3681C18.0969 29.3681 20.5199 27.0938 20.5199 24.1059C20.5199 22.2924 19.7766 21.0735 18.7955 20.0775L15.109 16.4951ZM15.109 19.6465L17.1455 21.6978C17.9036 22.4857 18.2009 23.1546 18.2009 24.1059C18.2009 25.7857 16.8631 27.064 15.109 27.064C13.3401 27.064 12.0172 25.8005 12.0172 24.1059C12.0172 23.1546 12.3145 22.4708 13.0577 21.6978L15.109 19.6465Z" fill="#005A27"/>
<path d="M15.109 1.0498C12.1212 1.0498 9.69824 3.32413 9.69824 6.31196C9.69824 8.12548 10.4415 9.34439 11.4226 10.3403L15.109 13.9228L18.7955 10.3403C19.7766 9.34439 20.5199 8.12548 20.5199 6.31196C20.5199 3.32413 18.0969 1.0498 15.109 1.0498ZM15.109 3.36872C16.8482 3.36872 18.2009 4.66196 18.2009 6.32683C18.2009 7.27818 17.9036 7.96196 17.1455 8.73493L15.109 10.7863L13.0726 8.73493C12.3145 7.96196 12.0172 7.27818 12.0172 6.32683C12.0172 4.63224 13.3401 3.36872 15.109 3.36872Z" fill="#005A27"/>
</svg>
