<svg width="24" height="24" viewBox="0 0 24 24" fill="none" xmlns="http://www.w3.org/2000/svg">
<rect x="3" y="3" width="18" height="18" rx="5.15578" stroke="white" stroke-linecap="round" stroke-linejoin="round"/>
<path d="M10.8029 14.4675C10.7321 14.4675 10.6642 14.4957 10.6141 14.5457C10.564 14.5958 10.5359 14.6637 10.5359 14.7346V17.7325C10.5359 17.9389 10.7603 18.0669 10.9377 17.9631L12.1383 17.2619L13.3389 17.9631C13.5147 18.0662 13.7407 17.9401 13.7407 17.7326V14.7346C13.7407 14.6638 13.7126 14.5959 13.6625 14.5458C13.6124 14.4957 13.5445 14.4676 13.4737 14.4676C13.4028 14.4676 13.3349 14.4957 13.2848 14.5458C13.2348 14.5959 13.2066 14.6638 13.2066 14.7346V17.2674L12.2731 16.7221C12.2322 16.6982 12.1857 16.6855 12.1384 16.6855C12.091 16.6855 12.0445 16.6982 12.0037 16.7221L11.0701 17.2674V14.7346C11.0701 14.6638 11.0419 14.5959 10.9918 14.5458C10.9417 14.4957 10.8738 14.4676 10.8029 14.4675Z" fill="white"/>
<path d="M8.44743 12.2901C8.2888 12.9935 8.77997 13.6858 9.51559 13.7551C9.75959 13.778 9.97138 13.932 10.0702 14.1612C10.3573 14.8261 11.1642 15.0926 11.7948 14.7181C12.0058 14.5924 12.2682 14.5925 12.4828 14.7199C13.1006 15.0868 13.9128 14.8363 14.2061 14.1571C14.3031 13.932 14.5149 13.778 14.7648 13.7545C15.4835 13.6869 15.9878 13.0029 15.8265 12.2881L15.8259 12.2853C15.7724 12.0464 15.8532 11.7974 16.0413 11.6316C16.5812 11.1559 16.5906 10.3072 16.0366 9.82009C15.8527 9.65841 15.7716 9.40931 15.8265 9.16368C15.9844 8.45701 15.4881 7.76838 14.758 7.70089C14.6378 7.68981 14.5229 7.64649 14.4253 7.57552C14.3278 7.50455 14.2512 7.40855 14.2036 7.29766C13.9176 6.63217 13.1092 6.36431 12.4796 6.7386C12.3757 6.8002 12.2571 6.83261 12.1362 6.83243C12.0154 6.83225 11.8969 6.79949 11.7931 6.73758C11.1688 6.36676 10.3584 6.6285 10.0709 7.29781C9.97388 7.52366 9.76143 7.67821 9.51258 7.7013C8.79679 7.76741 8.28763 8.4459 8.44936 9.17031C8.50283 9.40931 8.42169 9.65841 8.23431 9.82325C7.69096 10.3009 7.6856 11.1492 8.23758 11.6355C8.42163 11.7977 8.50237 12.0469 8.44743 12.2901ZM8.5905 10.2212C8.92111 9.9306 9.06678 9.48327 8.96933 9.04711C8.88089 8.65218 9.15879 8.2704 9.56585 8.23273C9.78164 8.21286 9.98807 8.13511 10.1634 8.00768C10.3386 7.88025 10.4763 7.70787 10.5617 7.50873C10.7211 7.13766 11.1707 6.98928 11.522 7.19796C11.7085 7.30862 11.9214 7.36694 12.1383 7.36676C12.3551 7.36658 12.5679 7.30791 12.7542 7.19694C13.1008 6.99111 13.5524 7.13531 13.7129 7.50863C13.8872 7.91457 14.2689 8.19206 14.7127 8.23314C15.1077 8.26964 15.3956 8.64346 15.3038 9.05378C15.2078 9.48332 15.3535 9.93065 15.6876 10.2245C15.9857 10.4865 15.9979 10.9582 15.6836 11.235C15.5214 11.3779 15.4007 11.5619 15.3341 11.7675C15.2676 11.9732 15.2575 12.1929 15.3052 12.4038C15.3117 12.4311 15.3127 12.4349 15.306 12.4076C15.3937 12.7965 15.1249 13.1841 14.7089 13.2234C14.2706 13.2646 13.8899 13.5415 13.7138 13.9499C13.5547 14.3189 13.1067 14.4692 12.7525 14.259C12.3731 14.0334 11.9015 14.0337 11.5189 14.2608C11.1739 14.4665 10.7224 14.3248 10.559 13.9458C10.3847 13.5415 10.004 13.2647 9.55983 13.223C9.16047 13.1852 8.87865 12.8064 8.96948 12.4039C9.06638 11.9742 8.92136 11.5264 8.58637 11.2311C8.28376 10.9641 8.28207 10.4925 8.5905 10.2212Z" fill="white"/>
<path d="M12.1369 12.5895C13.1626 12.5895 13.9972 11.755 13.9972 10.7292C13.9972 9.70341 13.1626 8.8689 12.1369 8.8689C11.1111 8.8689 10.2766 9.70346 10.2766 10.7293C10.2766 11.7551 11.1111 12.5895 12.1369 12.5895ZM12.1369 9.40303C12.8681 9.40303 13.463 9.99797 13.463 10.7293C13.463 11.4604 12.868 12.0553 12.1369 12.0553C11.4058 12.0553 10.8108 11.4604 10.8108 10.7293C10.8108 9.99797 11.4057 9.40303 12.1369 9.40303Z" fill="white"/>
</svg>
