<svg width="80" height="80" viewBox="0 0 80 80" fill="none" xmlns="http://www.w3.org/2000/svg">
<rect width="80" height="80" rx="40" fill="white"/>
<path fill-rule="evenodd" clip-rule="evenodd" d="M31.6571 40.1251C32.2192 40.7033 33.7908 42.2611 34.3004 42.7676C37.2494 40.157 41.001 35.9757 42.5647 34.8034C44.4612 33.3698 46.7351 33.6072 48.3593 35.2494C50.1237 37.0334 51.5106 37.8664 51.5918 40.1601C51.5106 44.1056 40.3227 53.6165 37.4198 56.3323C37.0583 56.6939 36.7478 56.9535 36.2813 57.4059C37.1969 57.7627 37.6013 58 40.4708 58C42.5408 58 44.8291 57.0539 46.1093 56.216C47.3896 55.3782 52.2065 50.348 53.6491 48.9065C56.4246 45.7016 58.3434 43.7632 57.9485 38.6262C57.7893 36.6734 56.7128 34.574 55.8211 33.3284C54.8068 31.9108 48.5217 26.1702 48.5217 25.6525C48.5217 24.3113 49.3179 23.104 49.4023 22.0017C35.9564 35.9455 35.9883 35.9343 31.6634 40.1267" fill="#333333"/>
<path fill-rule="evenodd" clip-rule="evenodd" d="M48.337 39.8733C47.7764 39.2951 46.2032 37.7373 45.6952 37.2308C42.7462 39.8415 38.993 44.0227 37.4293 45.195C35.5328 46.6286 33.2589 46.3912 31.6363 44.749C29.872 42.965 28.4834 42.132 28.4038 39.8383C28.4834 35.8928 39.6713 26.3819 42.5758 23.6661C42.9389 23.3045 43.2478 23.0449 43.7143 22.5925C42.8019 22.2373 42.3975 22 39.5296 22C37.4596 22 35.1697 22.9461 33.8895 23.784C32.6092 24.6218 27.7955 29.6457 26.3512 31.0936C23.5742 34.2984 21.6554 36.2368 22.0519 41.3738C22.2016 43.3266 23.286 45.426 24.1793 46.6716C25.1936 48.0892 31.4771 53.8298 31.4771 54.3475C31.4771 55.6887 30.6888 56.896 30.5965 57.9983C44.0376 44.0545 44.0121 44.0657 48.337 39.8733Z" fill="#333333"/>
</svg>
