<svg width="50" height="50" viewBox="0 0 50 50" fill="none" xmlns="http://www.w3.org/2000/svg">
<rect x="1" y="1" width="48" height="48" rx="13.7487" stroke="#333333" stroke-width="1.7" stroke-linecap="round" stroke-linejoin="round"/>
<path d="M21.8078 31.5801C21.6189 31.5801 21.4378 31.6551 21.3043 31.7886C21.1707 31.9222 21.0957 32.1033 21.0957 32.2922V40.2867C21.0957 40.8369 21.694 41.1784 22.1671 40.9015L25.3688 39.0319L28.5705 40.9016C29.0393 41.1765 29.6418 40.8403 29.6418 40.2869V32.2923C29.6418 32.1035 29.5668 31.9223 29.4332 31.7888C29.2997 31.6552 29.1186 31.5802 28.9297 31.5802C28.7408 31.5802 28.5597 31.6552 28.4262 31.7888C28.2926 31.9223 28.2176 32.1035 28.2176 32.2923V39.0463L25.7281 37.5923C25.6192 37.5284 25.4952 37.4947 25.369 37.4947C25.2427 37.4947 25.1187 37.5284 25.0098 37.5923L22.5203 39.0463V32.2923C22.5202 32.1034 22.4451 31.9223 22.3115 31.7888C22.1779 31.6552 21.9967 31.5802 21.8078 31.5801Z" fill="#333333"/>
<path d="M15.5265 25.7735C15.1035 27.6493 16.4132 29.4954 18.3749 29.6802C19.0256 29.7415 19.5903 30.1519 19.8539 30.7633C20.6194 32.5362 22.7711 33.2468 24.4528 32.2482C25.0154 31.913 25.7151 31.9134 26.2875 32.2531C27.935 33.2316 30.1007 32.5635 30.8829 30.7522C31.1416 30.1519 31.7065 29.7413 32.3727 29.6788C34.2892 29.4983 35.6342 27.6743 35.204 25.7684L35.2024 25.7608C35.0598 25.1237 35.2751 24.4598 35.7768 24.0175C37.2166 22.7491 37.2416 20.4859 35.7643 19.1869C35.2739 18.7558 35.0577 18.0915 35.204 17.4365C35.6251 15.552 34.3017 13.7157 32.3546 13.5357C32.0342 13.5062 31.7278 13.3906 31.4676 13.2014C31.2074 13.0121 31.0031 12.7561 30.8763 12.4604C30.1136 10.6858 27.9579 9.97151 26.279 10.9696C26.0019 11.1339 25.6855 11.2203 25.3633 11.2198C25.0411 11.2193 24.725 11.132 24.4483 10.9669C22.7835 9.97803 20.6223 10.676 19.8557 12.4608C19.597 13.0631 19.0305 13.4752 18.3669 13.5368C16.4581 13.7131 15.1003 15.5224 15.5316 17.4541C15.6742 18.0915 15.4578 18.7558 14.9582 19.1953C13.5092 20.469 13.4949 22.7313 14.9669 24.028C15.4577 24.4605 15.673 25.125 15.5265 25.7735ZM15.908 20.2566C16.7896 19.4816 17.1781 18.2887 16.9182 17.1256C16.6824 16.0725 17.4234 15.0544 18.5089 14.954C19.0844 14.901 19.6349 14.6936 20.1023 14.3538C20.5697 14.014 20.9367 13.5543 21.1646 13.0233C21.5895 12.0337 22.7886 11.6381 23.7254 12.1945C24.2227 12.4897 24.7904 12.6452 25.3687 12.6447C25.947 12.6442 26.5145 12.4878 27.0113 12.1918C27.9354 11.643 29.1397 12.0275 29.5676 13.023C30.0325 14.1055 31.0504 14.8455 32.2338 14.955C33.2873 15.0524 34.0549 16.0492 33.8101 17.1434C33.5541 18.2889 33.9426 19.4817 34.8336 20.2652C35.6286 20.9641 35.6611 22.2218 34.8229 22.9599C34.3904 23.3411 34.0686 23.8316 33.891 24.38C33.7135 24.9284 33.6868 25.5145 33.8137 26.0768C33.8313 26.1496 33.8339 26.1598 33.8161 26.0868C34.0499 27.124 33.3331 28.1577 32.2237 28.2625C31.0549 28.3723 30.0398 29.1106 29.5701 30.1998C29.1458 31.1837 27.9512 31.5845 27.0068 31.024C25.9948 30.4224 24.7374 30.4231 23.7171 31.0289C22.7971 31.5774 21.5932 31.1995 21.1573 30.1888C20.6924 29.1108 19.6773 28.3724 18.4929 28.2612C17.4279 28.1605 16.6764 27.1505 16.9186 26.0771C17.177 24.9312 16.7903 23.7371 15.897 22.9497C15.09 22.2376 15.0855 20.9799 15.908 20.2566Z" fill="#333333"/>
<path d="M25.365 26.5719C28.1003 26.5719 30.3257 24.3467 30.3257 21.6112C30.3257 18.8757 28.1003 16.6504 25.365 16.6504C22.6297 16.6504 20.4043 18.8759 20.4043 21.6114C20.4043 24.3468 22.6297 26.5719 25.365 26.5719ZM25.365 18.0747C27.3148 18.0747 28.9012 19.6613 28.9012 21.6114C28.9012 23.5612 27.3147 25.1476 25.365 25.1476C23.4153 25.1476 21.8288 23.5611 21.8288 21.6114C21.8288 19.6613 23.4152 18.0747 25.365 18.0747Z" fill="#333333"/>
</svg>
