<svg width="100" height="100" viewBox="0 0 100 100" fill="none" xmlns="http://www.w3.org/2000/svg">
<rect x="12.5" y="12.5" width="75" height="75" rx="21.4824" stroke="white" stroke-width="1.25" stroke-linecap="round" stroke-linejoin="round"/>
<path d="M45.0131 60.2822C44.718 60.2822 44.435 60.3995 44.2263 60.6081C44.0176 60.8168 43.9004 61.0998 43.9004 61.3949V73.8864C43.9004 74.7461 44.8353 75.2796 45.5744 74.847L50.577 71.9256L55.5797 74.8472C56.3122 75.2766 57.2537 74.7514 57.2537 73.8866V61.3951C57.2537 61.1 57.1365 60.817 56.9278 60.6083C56.7191 60.3997 56.4361 60.2824 56.141 60.2824C55.8459 60.2824 55.5629 60.3997 55.3543 60.6083C55.1456 60.817 55.0284 61.1 55.0284 61.3951V71.9482L51.1386 69.6763C50.9684 69.5765 50.7747 69.5239 50.5774 69.5239C50.3801 69.5239 50.1863 69.5765 50.0161 69.6763L46.1264 71.9482V61.3951C46.1261 61.0999 46.0088 60.8169 45.8 60.6083C45.5913 60.3996 45.3082 60.2823 45.0131 60.2822Z" fill="white"/>
<path d="M35.1971 51.2087C34.5362 54.1395 36.5827 57.0241 39.6478 57.3127C40.6645 57.4085 41.5469 58.0499 41.9587 59.0052C43.1549 61.7753 46.5169 62.8856 49.1445 61.3253C50.0235 60.8015 51.1168 60.8022 52.0112 61.3329C54.5855 62.8619 57.9694 61.818 59.1916 58.9878C59.5958 58.0499 60.4784 57.4083 61.5193 57.3106C64.5139 57.0286 66.6154 54.1786 65.9432 51.2006L65.9407 51.1887C65.7179 50.1933 66.0543 49.156 66.8382 48.4649C69.088 46.4829 69.1271 42.9468 66.8187 40.9171C66.0524 40.2434 65.7147 39.2055 65.9432 38.182C66.6012 35.2375 64.5335 32.3683 61.4911 32.0871C60.9905 32.0409 60.5116 31.8604 60.1051 31.5647C59.6985 31.2689 59.3793 30.869 59.1812 30.4069C57.9895 27.634 54.6212 26.518 51.998 28.0775C51.5649 28.3342 51.0706 28.4692 50.5672 28.4685C50.0637 28.4677 49.5698 28.3312 49.1375 28.0732C46.5362 26.5282 43.1593 27.6187 41.9615 30.4075C41.5573 31.3486 40.6721 31.9925 39.6353 32.0888C36.6528 32.3642 34.5313 35.1912 35.2052 38.2096C35.428 39.2055 35.0899 40.2434 34.3092 40.9302C32.0452 42.9202 32.0229 46.4551 34.3227 48.4813C35.0897 49.1571 35.4261 50.1954 35.1971 51.2087ZM35.7933 42.5885C37.1708 41.3775 37.7778 39.5136 37.3717 37.6963C37.0032 36.0507 38.1611 34.46 39.8572 34.3031C40.7563 34.2203 41.6165 33.8963 42.3468 33.3653C43.0771 32.8344 43.6506 32.1161 44.0067 31.2864C44.6706 29.7402 46.5443 29.122 48.008 29.9915C48.785 30.4526 49.6721 30.6956 50.5756 30.6948C51.4792 30.6941 52.3658 30.4496 53.1421 29.9872C54.5861 29.1296 56.4678 29.7305 57.1364 31.286C57.8627 32.9774 59.4533 34.1336 61.3023 34.3047C62.9484 34.4568 64.1478 36.0144 63.7653 37.7241C63.3653 39.5138 63.9723 41.3777 65.3645 42.6019C66.6067 43.694 66.6575 45.6591 65.3477 46.8124C64.6721 47.408 64.1692 48.1744 63.8918 49.0313C63.6143 49.8882 63.5726 50.8039 63.771 51.6825C63.7984 51.7963 63.8024 51.8123 63.7746 51.6982C64.1399 53.3187 63.02 54.9338 61.2866 55.0976C59.4603 55.2692 57.8742 56.4229 57.1402 58.1247C56.4774 59.6621 54.6108 60.2882 53.1351 59.4126C51.5539 58.4726 49.5892 58.4736 47.995 59.4202C46.5574 60.2772 44.6764 59.6867 43.9953 58.1075C43.2689 56.4231 41.6828 55.2694 39.8321 55.0957C38.1681 54.9383 36.9939 53.3601 37.3723 51.6829C37.7761 49.8925 37.1718 48.0268 35.7761 46.7964C34.5152 45.6838 34.5082 43.7186 35.7933 42.5885Z" fill="white"/>
<path d="M50.5685 52.4575C54.8425 52.4575 58.3196 48.9806 58.3196 44.7064C58.3196 40.4322 54.8425 36.9551 50.5685 36.9551C46.2945 36.9551 42.8174 40.4324 42.8174 44.7066C42.8174 48.9808 46.2945 52.4575 50.5685 52.4575ZM50.5685 39.1806C53.6151 39.1806 56.0938 41.6596 56.0938 44.7066C56.0938 47.7532 53.6149 50.2319 50.5685 50.2319C47.5221 50.2319 45.0431 47.753 45.0431 44.7066C45.0431 41.6596 47.5219 39.1806 50.5685 39.1806Z" fill="white"/>
</svg>
