<svg width="24" height="24" viewBox="0 0 24 24" fill="none" xmlns="http://www.w3.org/2000/svg">
<path fill-rule="evenodd" clip-rule="evenodd" d="M5.99609 4.99707C4.33924 4.99707 2.99609 6.34022 2.99609 7.99707V16.0029C2.99609 17.6598 4.33924 19.0029 5.99609 19.0029H18.0036C19.6604 19.0029 21.0036 17.6598 21.0036 16.0029V7.99707C21.0036 6.34022 19.6604 4.99707 18.0036 4.99707H5.99609ZM7.89165 9.11061C7.53906 8.89323 7.07701 9.00283 6.85963 9.35542C6.64225 9.70801 6.75186 10.1701 7.10444 10.3874L10.0311 12.1918C11.2382 12.936 12.7617 12.936 13.9687 12.1918L16.8954 10.3874C17.248 10.1701 17.3576 9.70801 17.1402 9.35542C16.9228 9.00283 16.4608 8.89323 16.1082 9.11061L13.1815 10.915C12.4571 11.3616 11.5428 11.3616 10.8183 10.915L7.89165 9.11061Z" fill="white"/>
</svg>
