<svg width="24" height="24" viewBox="0 0 24 24" fill="none" xmlns="http://www.w3.org/2000/svg">
<path fill-rule="evenodd" clip-rule="evenodd" d="M2.48438 7.99792C2.48438 4.9615 4.94588 2.5 7.98229 2.5H15.9865C19.0229 2.5 21.4844 4.9615 21.4844 7.99792V16.0021C21.4844 19.0385 19.0229 21.5 15.9865 21.5H7.98229C4.94588 21.5 2.48438 19.0385 2.48438 16.0021V7.99792ZM7.98229 3.5C5.49816 3.5 3.48438 5.51379 3.48438 7.99792V16.0021C3.48438 18.4862 5.49816 20.5 7.98229 20.5H15.9865C18.4706 20.5 20.4844 18.4862 20.4844 16.0021V7.99792C20.4844 5.51379 18.4706 3.5 15.9865 3.5H7.98229Z" fill="white"/>
<path fill-rule="evenodd" clip-rule="evenodd" d="M14.8691 13.3548C14.6114 13.3547 14.3568 13.41 14.1225 13.5169L14.8691 13.3548ZM14.1225 13.5169C14.1224 13.517 14.1226 13.5169 14.1225 13.5169V13.5169ZM14.1225 13.5169L11.3864 14.763C11.1351 14.8775 11.0241 15.174 11.1386 15.4253C11.253 15.6766 11.5495 15.7875 11.8008 15.6731L14.5371 14.4269C14.641 14.3795 14.7544 14.3547 14.8687 14.3548L15.5534 14.3548C15.8295 14.3548 16.0534 14.131 16.0534 13.8548C16.0534 13.5787 15.8295 13.3548 15.5534 13.3548H14.8691" fill="white"/>
<path fill-rule="evenodd" clip-rule="evenodd" d="M15.0857 10.7444C15.0857 9.87208 15.7928 9.16492 16.6652 9.16492H18.4643C18.7404 9.16492 18.9643 9.38878 18.9643 9.66492C18.9643 9.94107 18.7404 10.1649 18.4643 10.1649H16.6652C16.3451 10.1649 16.0857 10.4244 16.0857 10.7444V13.623C16.0857 13.943 16.3451 14.2025 16.6652 14.2025H18.4643C18.7404 14.2025 18.9643 14.4263 18.9643 14.7025C18.9643 14.9786 18.7404 15.2025 18.4643 15.2025H16.6652C15.7928 15.2025 15.0857 14.4953 15.0857 13.623V10.7444Z" fill="white"/>
<path fill-rule="evenodd" clip-rule="evenodd" d="M5.01082 9.66492C5.01082 9.38878 5.23468 9.16492 5.51082 9.16492H7.30994C8.18226 9.16492 8.88941 9.87208 8.88941 10.7444V13.623C8.88941 14.4953 8.18226 15.2025 7.30994 15.2025H5.51082C5.23468 15.2025 5.01082 14.9786 5.01082 14.7025C5.01082 14.4263 5.23468 14.2025 5.51082 14.2025H7.30994C7.62997 14.2025 7.88941 13.943 7.88941 13.623V10.7444C7.88941 10.4244 7.62997 10.1649 7.30994 10.1649H5.51082C5.23468 10.1649 5.01082 9.94107 5.01082 9.66492Z" fill="white"/>
<path fill-rule="evenodd" clip-rule="evenodd" d="M12.1463 8.67096C12.6552 8.3413 13.2958 8.28986 13.8508 8.53409L16.0796 9.51524C16.3324 9.6265 16.4471 9.92158 16.3358 10.1743C16.2245 10.4271 15.9295 10.5417 15.6767 10.4305L13.448 9.44938C13.2012 9.34079 12.5638 9.44604 12.3375 9.59261L10.9925 10.61C10.8677 10.691 10.7874 10.8253 10.7754 10.9736C10.7634 11.1219 10.8208 11.2673 10.9308 11.3673C11.0739 11.4967 11.2806 11.5279 11.4555 11.4466L12.0981 11.1269L12.4062 10.9736C12.4677 10.9449 12.54 10.9296 12.6144 10.9271L12.8997 12.3025L12.5892 12.0207L11.909 12.3385L11.8786 12.3527C11.3389 12.6041 10.7007 12.508 10.2594 12.1084C9.91941 11.7998 9.74153 11.3504 9.77866 10.8928C9.81579 10.4351 10.0633 10.0206 10.4487 9.77085L12.1463 8.67096Z" fill="white"/>
<path d="M13.7264 11.7023L13.015 11.0566C12.916 10.9668 12.7609 10.9221 12.6144 10.9271L12.8997 12.3025L13.0543 12.4428C13.164 12.5423 13.2297 12.6814 13.2368 12.8294C13.244 12.9774 13.1921 13.1221 13.0926 13.2318L11.5485 14.6483C11.2435 14.9274 10.7761 14.9285 10.4698 14.6507L9.5636 13.8288L9.5596 13.8252C9.25691 13.5565 8.87638 13.3914 8.47337 13.354C8.19842 13.3284 7.9548 13.5306 7.92924 13.8055C7.90368 14.0805 8.10586 14.3241 8.38082 14.3497C8.57107 14.3674 8.75076 14.445 8.89396 14.5715L9.79798 15.3914C10.4867 16.0161 11.5378 16.0137 12.2237 15.3859L13.7312 14.0062C13.7667 13.9737 13.8006 13.9396 13.833 13.9039C14.1108 13.5978 14.2557 13.1939 14.2357 12.781C14.2157 12.3681 14.0325 11.9801 13.7264 11.7023Z" fill="white"/>
<path fill-rule="evenodd" clip-rule="evenodd" d="M10.1423 10.3279C10.3635 10.251 10.6074 10.2757 10.8087 10.3956C11.0459 10.5369 11.3528 10.4591 11.4941 10.2218C11.6354 9.98457 11.5576 9.67769 11.3204 9.5364C10.8641 9.26467 10.3108 9.20918 9.80966 9.38488L8.23415 9.95271C7.97437 10.0463 7.83967 10.3328 7.9333 10.5926C8.02694 10.8524 8.31344 10.9871 8.57322 10.8935L10.1423 10.3279Z" fill="white"/>
</svg>
