<svg width="100" height="100" viewBox="0 0 100 100" fill="none" xmlns="http://www.w3.org/2000/svg">
<rect x="12.4346" y="12.5" width="75" height="75" rx="20" stroke="white" stroke-width="1.5" stroke-linecap="round" stroke-linejoin="round"/>
<path d="M64.8056 57.7285H61.9543C61.1791 57.7279 60.4129 57.8943 59.7077 58.2163L48.3066 63.4087" stroke="white" stroke-width="1.5" stroke-linecap="round" stroke-linejoin="round"/>
<path d="M76.9346 40.2705H69.4382C66.9542 40.2705 64.9404 42.2842 64.9404 44.7683V56.7624C64.9404 59.2465 66.9542 61.2602 69.4382 61.2602H76.9346" stroke="white" stroke-width="1.5" stroke-linecap="round" stroke-linejoin="round"/>
<path d="M22.9619 61.2602H30.4582C32.9423 61.2602 34.9561 59.2465 34.9561 56.7624V44.7683C34.9561 42.2842 32.9423 40.2705 30.4582 40.2705H22.9619" stroke="white" stroke-width="1.5" stroke-linecap="round" stroke-linejoin="round"/>
<path d="M66.1594 41.5541L56.8727 37.466C55.2024 36.7309 53.2743 36.8857 51.7426 37.878L44.6695 42.4606C43.6066 43.1495 42.9237 44.2929 42.8213 45.5554C42.7189 46.8179 43.2085 48.0565 44.1465 48.9077V48.9077C45.364 50.0103 47.1237 50.2761 48.6126 49.5824L52.8293 47.6124L55.7935 50.3026C56.6597 51.0889 57.1782 52.187 57.2348 53.3555C57.2914 54.524 56.8814 55.6671 56.0952 56.5333C56.0036 56.6342 55.9075 56.7307 55.8069 56.8228L49.5257 62.5717C47.4613 64.4612 44.2978 64.4683 42.2249 62.5882L38.449 59.1635C37.5195 58.3384 36.3509 57.8314 35.1133 57.7163" stroke="white" stroke-width="1.5" stroke-linecap="round" stroke-linejoin="round"/>
<path d="M35.0156 43.4295L41.5631 41.0697C43.069 40.5417 44.7314 40.7085 46.1024 41.525" stroke="white" stroke-width="1.5" stroke-linecap="round" stroke-linejoin="round"/>
</svg>
