<svg width="24" height="24" viewBox="0 0 24 24" fill="none" xmlns="http://www.w3.org/2000/svg">
<path fill-rule="evenodd" clip-rule="evenodd" d="M19.0006 15.4264L17.8985 14.3242C17.3479 13.7736 16.4552 13.7736 15.9056 14.3242L15.0392 15.1905C14.8457 15.3841 14.5525 15.4489 14.3026 15.339C13.0473 14.7893 11.807 13.9559 10.7011 12.85C9.59984 11.7487 8.76923 10.5141 8.21862 9.26348C8.10399 9.00509 8.1707 8.70159 8.37084 8.50146L9.14695 7.72534C9.77743 7.09486 9.77743 6.20318 9.22682 5.65257L8.12466 4.55041C7.39083 3.81657 6.20128 3.81657 5.46745 4.55041L4.85483 5.16209C4.15858 5.85834 3.86824 6.86278 4.05616 7.85877C4.52032 10.314 5.94665 13.0022 8.24775 15.3033C10.5488 17.6044 13.2371 19.0307 15.6923 19.4949C16.6882 19.6828 17.6927 19.3925 18.3889 18.6962L19.0006 18.0845C19.7345 17.3507 19.7345 16.1611 19.0006 15.4264Z" fill="white"/>
</svg>
