<svg width="24" height="24" viewBox="0 0 24 24" fill="none" xmlns="http://www.w3.org/2000/svg">
<path fill-rule="evenodd" clip-rule="evenodd" d="M9.50098 15.5002C9.50098 15.2241 9.72483 15.0002 10.001 15.0002H14.0029C14.2791 15.0002 14.5029 15.2241 14.5029 15.5002C14.5029 15.7763 14.2791 16.0002 14.0029 16.0002H10.001C9.72483 16.0002 9.50098 15.7763 9.50098 15.5002Z" fill="white"/>
<path fill-rule="evenodd" clip-rule="evenodd" d="M15.5012 9.49805C15.7773 9.49805 16.0012 9.7219 16.0012 9.99805V14C16.0012 14.2761 15.7773 14.5 15.5012 14.5C15.225 14.5 15.0012 14.2761 15.0012 14V9.99805C15.0012 9.7219 15.225 9.49805 15.5012 9.49805Z" fill="white"/>
<path fill-rule="evenodd" clip-rule="evenodd" d="M15.0014 7.49609C14.725 7.49609 14.501 7.72014 14.501 7.99651V8.99693C14.501 9.2733 14.725 9.49734 15.0014 9.49734H16.0018C16.2782 9.49734 16.5022 9.2733 16.5022 8.99693V7.99651C16.5022 7.72014 16.2782 7.49609 16.0018 7.49609H15.0014ZM13.501 7.99651C13.501 7.16785 14.1727 6.49609 15.0014 6.49609H16.0018C16.8305 6.49609 17.5022 7.16785 17.5022 7.99651V8.99693C17.5022 9.82558 16.8305 10.4973 16.0018 10.4973H15.0014C14.1727 10.4973 13.501 9.82558 13.501 8.99693V7.99651Z" fill="white"/>
<path fill-rule="evenodd" clip-rule="evenodd" d="M15.0014 14.5C14.725 14.5 14.501 14.724 14.501 15.0004V16.0008C14.501 16.2772 14.725 16.5012 15.0014 16.5012H16.0018C16.2782 16.5012 16.5022 16.2772 16.5022 16.0008V15.0004C16.5022 14.724 16.2782 14.5 16.0018 14.5H15.0014ZM13.501 15.0004C13.501 14.1718 14.1727 13.5 15.0014 13.5H16.0018C16.8305 13.5 17.5022 14.1718 17.5022 15.0004V16.0008C17.5022 16.8295 16.8305 17.5012 16.0018 17.5012H15.0014C14.1727 17.5012 13.501 16.8295 13.501 16.0008V15.0004Z" fill="white"/>
<path fill-rule="evenodd" clip-rule="evenodd" d="M9.50098 8.49825C9.50098 8.22211 9.72483 7.99825 10.001 7.99825H14.0029C14.2791 7.99825 14.5029 8.22211 14.5029 8.49825C14.5029 8.7744 14.2791 8.99825 14.0029 8.99825H10.001C9.72483 8.99825 9.50098 8.7744 9.50098 8.49825Z" fill="white"/>
<path fill-rule="evenodd" clip-rule="evenodd" d="M8.49338 9.49805C8.76952 9.49805 8.99338 9.7219 8.99338 9.99805V14C8.99338 14.2761 8.76952 14.5 8.49338 14.5C8.21724 14.5 7.99338 14.2761 7.99338 14V9.99805C7.99338 9.7219 8.21724 9.49805 8.49338 9.49805Z" fill="white"/>
<path fill-rule="evenodd" clip-rule="evenodd" d="M7.99358 7.49609C7.71721 7.49609 7.49316 7.72014 7.49316 7.99651V8.99693C7.49316 9.2733 7.71721 9.49734 7.99358 9.49734H8.994C9.27037 9.49734 9.49441 9.2733 9.49441 8.99693V7.99651C9.49441 7.72014 9.27037 7.49609 8.994 7.49609H7.99358ZM6.49316 7.99651C6.49316 7.16785 7.16492 6.49609 7.99358 6.49609H8.994C9.82265 6.49609 10.4944 7.16785 10.4944 7.99651V8.99693C10.4944 9.82558 9.82265 10.4973 8.994 10.4973H7.99358C7.16492 10.4973 6.49316 9.82558 6.49316 8.99693V7.99651Z" fill="white"/>
<path fill-rule="evenodd" clip-rule="evenodd" d="M7.99358 14.5C7.71721 14.5 7.49316 14.724 7.49316 15.0004V16.0008C7.49316 16.2772 7.71721 16.5012 7.99358 16.5012H8.994C9.27037 16.5012 9.49441 16.2772 9.49441 16.0008V15.0004C9.49441 14.724 9.27037 14.5 8.994 14.5H7.99358ZM6.49316 15.0004C6.49316 14.1718 7.16492 13.5 7.99358 13.5H8.994C9.82265 13.5 10.4944 14.1718 10.4944 15.0004V16.0008C10.4944 16.8295 9.82265 17.5012 8.994 17.5012H7.99358C7.16492 17.5012 6.49316 16.8295 6.49316 16.0008V15.0004Z" fill="white"/>
<path fill-rule="evenodd" clip-rule="evenodd" d="M2.49316 7.99609C2.49316 4.95853 4.9556 2.49609 7.99316 2.49609H16.0007C19.0382 2.49609 21.5007 4.95853 21.5007 7.99609V16.0036C21.5007 19.0412 19.0382 21.5036 16.0007 21.5036H7.99316C4.9556 21.5036 2.49316 19.0412 2.49316 16.0036V7.99609ZM7.99316 3.49609C5.50788 3.49609 3.49316 5.51081 3.49316 7.99609V16.0036C3.49316 18.4889 5.50788 20.5036 7.99316 20.5036H16.0007C18.4859 20.5036 20.5007 18.4889 20.5007 16.0036V7.99609C20.5007 5.51081 18.4859 3.49609 16.0007 3.49609H7.99316Z" fill="white"/>
</svg>
