<svg width="24" height="24" viewBox="0 0 24 24" fill="none" xmlns="http://www.w3.org/2000/svg">
<path fill-rule="evenodd" clip-rule="evenodd" d="M19.3885 8.93962C17.6979 4.85892 13.0199 2.92034 8.93924 4.61093C4.85855 6.30152 2.92086 10.9795 4.61056 15.0602C6.30114 19.1409 10.9791 21.0795 15.0598 19.3889C19.1405 17.6983 21.0791 13.0203 19.3885 8.93962ZM12.4147 8.43066C12.4147 8.06249 12.1162 7.76403 11.748 7.76403C11.3799 7.76403 11.0814 8.06249 11.0814 8.43066V12.5647C11.0814 12.7972 11.2025 13.0129 11.401 13.1339L14.6506 15.1151C14.965 15.3068 15.3752 15.2073 15.5669 14.893C15.7585 14.5786 15.6591 14.1684 15.3447 13.9767L12.4147 12.1904V8.43066Z" fill="white"/>
</svg>
