<svg width="24" height="24" viewBox="0 0 24 24" fill="none" xmlns="http://www.w3.org/2000/svg">
<path d="M19.6736 9.70583C19.6736 9.69951 19.6736 9.69319 19.6736 9.68686V9.72687C19.6736 9.71985 19.6736 9.71284 19.6736 9.70583Z" fill="white"/>
<path fill-rule="evenodd" clip-rule="evenodd" d="M3.99984 9.70233C4.01055 4.82809 8.0537 2 11.8358 2C15.6183 2 19.662 4.82874 19.6736 9.70583C19.668 11.8283 18.7231 13.8371 17.0931 15.197L14.5236 17.3392C13.4997 18.1939 12.7341 19.3159 12.3122 20.5816L11.8358 22.0037L11.3612 20.5798C10.9393 19.3159 10.1737 18.1921 9.14985 17.3374L6.58029 15.1951C4.94806 13.8349 4.00493 11.8254 3.99984 9.70233ZM10.23 7.89322C11.1177 7.00548 12.5523 7.00838 13.4393 7.88888L13.4412 7.89076L13.4437 7.89322C14.3307 8.78024 14.3307 10.2199 13.4437 11.1069C12.5566 11.994 11.117 11.994 10.23 11.1069C9.34293 10.2199 9.34293 8.78024 10.23 7.89322Z" fill="white"/>
<path d="M3.99984 9.70233C3.99983 9.70771 3.99982 9.71309 3.99982 9.71847V9.68504C3.99982 9.69081 3.99982 9.69657 3.99984 9.70233Z" fill="white"/>
</svg>
