<svg width="24" height="24" viewBox="0 0 24 24" fill="none" xmlns="http://www.w3.org/2000/svg">
<rect x="2.98438" y="3" width="18" height="18" rx="4.99792" stroke="white" stroke-linecap="round" stroke-linejoin="round"/>
<path d="M15.5534 13.8548H14.8691C14.683 13.8547 14.4991 13.8946 14.3299 13.9719L11.5936 15.2181" stroke="white" stroke-linecap="round" stroke-linejoin="round"/>
<path d="M18.4643 9.66492H16.6652C16.069 9.66492 15.5857 10.1482 15.5857 10.7444V13.623C15.5857 14.2192 16.069 14.7025 16.6652 14.7025H18.4643" stroke="white" stroke-linecap="round" stroke-linejoin="round"/>
<path d="M5.51083 14.7025H7.30995C7.90613 14.7025 8.38943 14.2192 8.38943 13.623V10.7444C8.38943 10.1482 7.90613 9.66492 7.30995 9.66492H5.51083" stroke="white" stroke-linecap="round" stroke-linejoin="round"/>
<path d="M15.8782 9.97287L13.6494 8.99173C13.2485 8.81531 12.7857 8.85247 12.4182 9.0906L10.7206 10.1904C10.4655 10.3558 10.3016 10.6302 10.277 10.9332C10.2525 11.2362 10.37 11.5334 10.5951 11.7377V11.7377C10.8873 12.0024 11.3096 12.0662 11.6669 11.8997L12.679 11.4269L13.3904 12.0725C13.5983 12.2612 13.7227 12.5248 13.7363 12.8052C13.7498 13.0856 13.6515 13.36 13.4628 13.5679C13.4408 13.5921 13.4177 13.6152 13.3936 13.6374L11.8861 15.0171C11.3906 15.4706 10.6314 15.4723 10.1339 15.0211L9.22768 14.1991C9.00459 14.0011 8.72413 13.8794 8.42711 13.8518" stroke="white" stroke-linecap="round" stroke-linejoin="round"/>
<path d="M8.40369 10.4231L9.97509 9.85673C10.3365 9.73002 10.7355 9.77004 11.0645 9.966" stroke="white" stroke-linecap="round" stroke-linejoin="round"/>
</svg>
