<svg width="24" height="24" viewBox="0 0 24 24" fill="none" xmlns="http://www.w3.org/2000/svg">
<path d="M10.001 15.5002H14.0029" stroke="white" stroke-linecap="round" stroke-linejoin="round"/>
<path d="M15.5012 14V9.99805" stroke="white" stroke-linecap="round" stroke-linejoin="round"/>
<path fill-rule="evenodd" clip-rule="evenodd" d="M14.001 8.99693V7.99651C14.001 7.444 14.4489 6.99609 15.0014 6.99609H16.0018C16.5543 6.99609 17.0022 7.444 17.0022 7.99651V8.99693C17.0022 9.54944 16.5543 9.99734 16.0018 9.99734H15.0014C14.4489 9.99734 14.001 9.54944 14.001 8.99693Z" stroke="white" stroke-linecap="round" stroke-linejoin="round"/>
<path fill-rule="evenodd" clip-rule="evenodd" d="M17.0022 15.0004V16.0008C17.0022 16.5533 16.5543 17.0012 16.0018 17.0012H15.0014C14.4489 17.0012 14.001 16.5533 14.001 16.0008V15.0004C14.001 14.4479 14.4489 14 15.0014 14H16.0018C16.5543 14 17.0022 14.4479 17.0022 15.0004Z" stroke="white" stroke-linecap="round" stroke-linejoin="round"/>
<path d="M14.0029 8.49826H10.001" stroke="white" stroke-linecap="round" stroke-linejoin="round"/>
<path d="M8.49337 14V9.99805" stroke="white" stroke-linecap="round" stroke-linejoin="round"/>
<path fill-rule="evenodd" clip-rule="evenodd" d="M6.99316 8.99693V7.99651C6.99316 7.444 7.44107 6.99609 7.99358 6.99609H8.994C9.54651 6.99609 9.99441 7.444 9.99441 7.99651V8.99693C9.99441 9.54944 9.54651 9.99734 8.994 9.99734H7.99358C7.44107 9.99734 6.99316 9.54944 6.99316 8.99693Z" stroke="white" stroke-linecap="round" stroke-linejoin="round"/>
<path fill-rule="evenodd" clip-rule="evenodd" d="M9.99441 15.0004V16.0008C9.99441 16.5533 9.54651 17.0012 8.994 17.0012H7.99358C7.44107 17.0012 6.99316 16.5533 6.99316 16.0008V15.0004C6.99316 14.4479 7.44107 14 7.99358 14H8.994C9.54651 14 9.99441 14.4479 9.99441 15.0004Z" stroke="white" stroke-linecap="round" stroke-linejoin="round"/>
<rect x="2.99316" y="2.99609" width="18.0075" height="18.0075" rx="5" stroke="white" stroke-linecap="round" stroke-linejoin="round"/>
</svg>
