<svg width="24" height="24" viewBox="0 0 24 24" fill="none" xmlns="http://www.w3.org/2000/svg">
<path fill-rule="evenodd" clip-rule="evenodd" d="M7.82853 12.0625C8.10958 12.3516 8.89541 13.1306 9.15019 13.3838C10.6247 12.0785 12.5005 9.98787 13.2824 9.4017C14.2306 8.68492 15.3676 8.80359 16.1797 9.6247C17.0618 10.5167 17.7553 10.9332 17.7959 12.0801C17.7553 14.0528 12.1613 18.8082 10.7099 20.1661C10.5292 20.3469 10.3739 20.4768 10.1406 20.7029C10.5984 20.8813 10.8007 21 12.2354 21C13.2704 21 14.4145 20.5269 15.0547 20.108C15.6948 19.6891 18.1032 17.174 18.8246 16.4532C20.2123 14.8508 21.1717 13.8816 20.9743 11.3131C20.8946 10.3367 20.3564 9.28701 19.9106 8.66421C19.4034 7.9554 16.2609 5.08509 16.2609 4.82625C16.2609 4.15566 16.659 3.55198 16.7012 3.00085C9.97822 9.97273 9.99414 9.96716 7.83172 12.0633" fill="white"/>
<path fill-rule="evenodd" clip-rule="evenodd" d="M16.1685 11.9367C15.8882 11.6476 15.1016 10.8687 14.8476 10.6154C13.3731 11.9207 11.4965 14.0113 10.7146 14.5975C9.7664 15.3143 8.62945 15.1956 7.81815 14.3745C6.93598 13.4825 6.24171 13.066 6.2019 11.9191C6.24171 9.9464 11.8357 5.19096 13.2879 3.83306C13.4694 3.65227 13.6239 3.52245 13.8572 3.29627C13.401 3.11867 13.1987 3 11.7648 3C10.7298 3 9.58487 3.47307 8.94474 3.89199C8.30461 4.31091 5.89776 6.82283 5.17562 7.54678C3.78709 9.14918 2.82769 10.1184 3.02594 12.6869C3.10078 13.6633 3.64298 14.713 4.08964 15.3358C4.5968 16.0446 7.73853 18.9149 7.73853 19.1737C7.73853 19.8443 7.34442 20.448 7.29824 20.9991C14.0188 14.0273 14.0061 14.0328 16.1685 11.9367Z" fill="white"/>
</svg>
