<svg width="635" height="635" viewBox="0 0 635 635" fill="none" xmlns="http://www.w3.org/2000/svg">
    <path fill-rule="evenodd" clip-rule="evenodd" d="M170.227 319.347C180.133 329.535 207.832 356.981 216.812 365.905C268.786 319.909 334.904 246.242 362.463 225.587C395.886 200.329 435.961 204.511 464.586 233.445C495.681 264.876 520.124 279.553 521.556 319.965C520.124 389.479 322.949 557.047 271.789 604.895C265.419 611.266 259.946 615.84 251.723 623.81C267.86 630.096 274.988 634.278 325.559 634.278C362.042 634.278 402.369 617.608 424.932 602.847C447.496 588.085 532.388 499.46 557.814 474.062C606.729 417.598 640.545 383.445 633.586 292.939C630.779 258.533 611.808 221.546 596.093 199.6C578.216 174.623 467.449 73.4817 467.449 64.361C467.449 40.7314 481.481 19.4591 482.968 0.0390625C245.998 245.708 246.56 245.512 170.339 319.375" fill="#333333"/>
    <path fill-rule="evenodd" clip-rule="evenodd" d="M464.161 314.902C454.283 304.715 426.556 277.269 417.603 268.345C365.63 314.341 299.484 388.008 271.925 408.663C238.501 433.92 198.426 429.739 169.829 400.805C138.735 369.374 114.263 354.697 112.86 314.285C114.263 244.771 311.439 77.2031 362.627 29.3546C369.025 22.9841 374.47 18.4098 382.692 10.4397C366.612 4.18149 359.484 0 308.941 0C272.458 0 232.103 16.6698 209.54 31.4313C186.976 46.1928 102.14 134.706 76.6862 160.215C27.7432 216.68 -6.07353 250.833 0.914321 341.338C3.5523 375.744 22.6637 412.732 38.4074 434.678C56.284 459.655 167.023 560.796 167.023 569.917C167.023 593.546 153.132 614.819 151.504 634.239C388.389 388.569 387.94 388.766 464.161 314.902Z" fill="#333333"/>
</svg>
